<svg xmlns="http://www.w3.org/2000/svg" version="1.1" id="Layer_1" x="0" y="0" viewBox="0 0 192.9 60.2" xml:space="preserve" enable-background="new 0 0 192.9 60.2"><style type="text/css">.st0{fill:#0790C1;}.st1{fill:#FFFFFF;stroke:#FFFFFF;stroke-miterlimit:10;}.st2{fill:#010101;}.st3{fill:#FFFFFF;}</style><rect x="45.6" class="st0" width="147.3" height="60.2"/><path class="st1" d="M85.9 46.1c-8.8 0-16-7.2-16-16 0-8.8 7.2-16 16-16 8.8 0 16 7.2 16 16C101.9 38.9 94.7 46.1 85.9 46.1zM76.3 30.1c0 5.3 4.3 9.6 9.6 9.6 5.3 0 9.6-4.3 9.6-9.6 0-5.3-4.3-9.6-9.6-9.6C80.6 20.5 76.3 24.8 76.3 30.1z"/><path class="st1" d="M110.1 13.7h6.4v25.6h17.1v6.4h-23.5V13.7z"/><path class="st1" d="M155.4 14.1c5.2 0 9.9 2.5 12.8 6.4l0.6 0.9 -5.1 3.9 -0.6-0.9c-1.8-2.3-4.5-3.8-7.7-3.8 -5.3 0-9.6 4.3-9.6 9.6 0 5.3 4.3 9.6 9.6 9.6 3.2 0 5.9-1.5 7.7-3.8l0.6-0.9 5.1 3.9 -0.6 0.9c-2.9 3.9-7.6 6.4-12.8 6.4 -8.8 0-16-7.2-16-16C139.4 21.3 146.5 14.1 155.4 14.1z"/><polygon class="st2" points="45.6 0 0 0 0 60.2 45.6 60.2 58.8 29.6 "/><path class="st3" d="M8.7 28.2c0-1.1 0-2-0.1-2.9h1.7l0.1 1.7h0.1c0.6-1 1.6-2 3.3-2 1.5 0 2.6 0.9 3 2.1h0c0.3-0.6 0.7-1.1 1.2-1.4 0.6-0.5 1.3-0.7 2.4-0.7 1.4 0 3.5 0.9 3.5 4.6V36H22v-6c0-2-0.7-3.3-2.3-3.3 -1.1 0-2 0.8-2.3 1.8 -0.1 0.3-0.2 0.6-0.2 1V36h-1.9v-6.4c0-1.7-0.7-2.9-2.2-2.9 -1.2 0-2.1 1-2.4 1.9 -0.1 0.3-0.2 0.6-0.2 0.9V36H8.7V28.2z"/><path class="st3" d="M31.9 25.3l2.3 6.3c0.2 0.7 0.5 1.5 0.7 2.2h0c0.2-0.6 0.4-1.5 0.7-2.2l2.1-6.2h2l-2.9 7.6c-1.4 3.7-2.3 5.5-3.7 6.7 -0.9 0.8-1.9 1.2-2.4 1.3l-0.5-1.6c0.5-0.2 1.1-0.5 1.7-0.9 0.5-0.4 1.2-1.2 1.6-2.2 0.1-0.2 0.2-0.4 0.2-0.5s0-0.3-0.1-0.5l-3.9-9.8H31.9z"/></svg>